<?xml version="1.0" encoding="UTF-8"?>
<svg id="Capa_2" data-name="Capa 2" xmlns="http://www.w3.org/2000/svg" xmlns:xlink="http://www.w3.org/1999/xlink" viewBox="0 0 4071.12 857.5">
  <defs>
    <style>
      .cls-1 {
        fill: #000;
      }

      .cls-1, .cls-2 {
        stroke-width: 0px;
      }

      .cls-3 {
        isolation: isolate;
      }

      .cls-2 {
        fill: url(#Degradado_sin_nombre_4);
      }
    </style>
    <linearGradient id="Degradado_sin_nombre_4" data-name="Degradado sin nombre 4" x1="0" y1="139.93" x2="857.5" y2="139.93" gradientTransform="translate(0 288.82)" gradientUnits="userSpaceOnUse">
      <stop offset="0" stop-color="#8277b0"/>
      <stop offset="1" stop-color="#bfb6e7"/>
    </linearGradient>
  </defs>
  <g id="Capa_1-2" data-name="Capa 1">
    <g>
      <g>
        <g class="cls-3">
          <path class="cls-1" d="M1342.19,176.42c13.61,5.85,25.14,14.46,34.6,25.82,7.82,9.36,14.02,19.72,18.58,31.09,4.56,11.37,6.85,24.32,6.85,38.86,0,17.55-4.43,34.81-13.29,51.77-8.86,16.97-23.49,28.96-43.88,35.98,17.05,6.86,29.12,16.59,36.23,29.21,7.1,12.62,10.66,31.88,10.66,57.79v24.82c0,16.88.68,28.33,2.04,34.35,2.04,9.53,6.79,16.55,14.26,21.06v9.28h-85.24c-2.34-8.19-4.01-14.79-5.01-19.81-2.01-10.36-3.09-20.97-3.26-31.84l-.5-34.35c-.32-23.57-4.39-39.28-12.21-47.14-7.83-7.85-22.49-11.78-43.99-11.78h-75.42v144.92h-75.47V166.89h176.77c25.26.5,44.7,3.68,58.31,9.53ZM1182.58,231.08v99.28h83.11c16.51,0,28.89-2.01,37.15-6.02,14.6-7.02,21.91-20.89,21.91-41.62,0-22.4-7.07-37.44-21.19-45.13-7.94-4.34-19.84-6.52-35.72-6.52h-85.25Z"/>
          <path class="cls-1" d="M1749.46,232.33h-195.56v78.48h179.52v64.18h-179.52v95.02h204.59v66.44h-280.05V166.89h271.03v65.44Z"/>
          <path class="cls-1" d="M1924.33,166.89h87.38l130.75,369.56h-83.74l-24.39-75.97h-136.09l-25.05,75.97h-80.77l131.92-369.56ZM1919.25,396.8h94.65l-46.68-145.42-47.96,145.42Z"/>
          <path class="cls-1" d="M2189.47,166.89h77.22v303.12h184.53v66.44h-261.75V166.89Z"/>
          <path class="cls-1" d="M2573.57,536.45h-76.72V166.89h76.72v369.56Z"/>
          <path class="cls-1" d="M2645.78,167.39h263.51v64.94h-186.79v84.99h163.72v64.18h-163.72v154.94h-76.72V167.39Z"/>
          <path class="cls-1" d="M3244,503.61c-27.92,28.75-68.28,43.12-121.1,43.12s-93.19-14.37-121.1-43.12c-37.44-35.27-56.16-86.08-56.16-152.44s18.72-118.5,56.16-152.44c27.91-28.75,68.28-43.12,121.1-43.12s93.18,14.38,121.1,43.12c37.27,33.93,55.91,84.74,55.91,152.44s-18.64,117.17-55.91,152.44ZM3195.73,447.45c17.97-22.56,26.95-54.66,26.95-96.28s-8.99-73.5-26.95-96.15c-17.97-22.65-42.25-33.97-72.83-33.97s-54.99,11.28-73.21,33.85c-18.22,22.56-27.33,54.66-27.33,96.28s9.11,73.71,27.33,96.28c18.22,22.56,42.62,33.85,73.21,33.85s54.86-11.28,72.83-33.85Z"/>
          <path class="cls-1" d="M3643.39,503.61c-27.92,28.75-68.28,43.12-121.1,43.12s-93.19-14.37-121.1-43.12c-37.44-35.27-56.16-86.08-56.16-152.44s18.72-118.5,56.16-152.44c27.91-28.75,68.28-43.12,121.1-43.12s93.18,14.38,121.1,43.12c37.27,33.93,55.91,84.74,55.91,152.44s-18.64,117.17-55.91,152.44ZM3595.13,447.45c17.97-22.56,26.95-54.66,26.95-96.28s-8.99-73.5-26.95-96.15c-17.97-22.65-42.25-33.97-72.83-33.97s-54.99,11.28-73.21,33.85c-18.22,22.56-27.33,54.66-27.33,96.28s9.11,73.71,27.33,96.28c18.22,22.56,42.62,33.85,73.21,33.85s54.86-11.28,72.83-33.85Z"/>
          <path class="cls-1" d="M3974.77,174.92c25.93,8.52,46.92,24.16,62.98,46.88,12.88,18.39,21.66,38.28,26.35,59.67,4.69,21.4,7.03,41.79,7.03,61.18,0,49.14-9.87,90.76-29.61,124.86-26.76,45.97-68.08,68.95-123.95,68.95h-159.34V166.89h159.34c22.92.34,41.98,3.01,57.21,8.02ZM3833.19,231.08v241.19h71.32c36.5,0,61.94-17.97,76.34-53.9,7.87-19.72,11.8-43.21,11.8-70.45,0-37.61-5.9-66.48-17.7-86.62-11.8-20.14-35.28-30.21-70.44-30.21h-71.32Z"/>
        </g>
        <g class="cls-3">
          <path class="cls-1" d="M1150.35,594.02h15.04l35.64,98.22h-14.58l-9.96-29.42h-38.84l-10.63,29.42h-13.64l36.97-98.22ZM1172.22,651.99l-14.91-43.39-15.85,43.39h30.76Z"/>
          <path class="cls-1" d="M1231.85,594.02h45.46c7.49,0,13.66,1.09,18.52,3.28,9.23,4.19,13.84,11.92,13.84,23.2,0,5.88-1.21,10.7-3.64,14.44-2.43,3.74-5.83,6.75-10.2,9.03,3.83,1.56,6.72,3.61,8.66,6.15,1.94,2.54,3.02,6.66,3.24,12.37l.47,13.17c.13,3.74.45,6.53.94,8.36.8,3.12,2.23,5.13,4.28,6.02v2.21h-16.31c-.45-.85-.8-1.94-1.07-3.28s-.49-3.92-.67-7.76l-.8-16.38c-.31-6.42-2.7-10.72-7.15-12.9-2.54-1.2-6.53-1.81-11.97-1.81h-30.29v42.12h-13.3v-98.22ZM1275.91,639.02c6.24,0,11.18-1.25,14.81-3.74,3.63-2.5,5.45-7,5.45-13.51,0-7-2.54-11.77-7.62-14.31-2.72-1.34-6.35-2.01-10.9-2.01h-32.49v33.56h30.76Z"/>
          <path class="cls-1" d="M1410.1,660.55c.31,5.57,1.63,10.1,3.94,13.57,4.41,6.51,12.19,9.76,23.33,9.76,4.99,0,9.54-.71,13.64-2.14,7.93-2.76,11.9-7.71,11.9-14.84,0-5.35-1.67-9.16-5.01-11.43-3.39-2.23-8.69-4.17-15.91-5.82l-13.3-3.01c-8.69-1.96-14.84-4.12-18.45-6.49-6.24-4.1-9.36-10.23-9.36-18.39,0-8.83,3.05-16.07,9.16-21.73,6.11-5.66,14.75-8.49,25.94-8.49,10.3,0,19.04,2.49,26.24,7.45,7.2,4.97,10.8,12.92,10.8,23.84h-12.5c-.67-5.26-2.1-9.29-4.28-12.1-4.06-5.13-10.94-7.69-20.66-7.69-7.85,0-13.48,1.65-16.92,4.95-3.43,3.3-5.15,7.13-5.15,11.5,0,4.81,2.01,8.34,6.02,10.56,2.63,1.43,8.58,3.21,17.85,5.35l13.77,3.14c6.64,1.52,11.77,3.59,15.38,6.22,6.24,4.59,9.36,11.26,9.36,19.99,0,10.88-3.96,18.65-11.87,23.33-7.91,4.68-17.1,7.02-27.58,7.02-12.21,0-21.77-3.12-28.68-9.36-6.91-6.19-10.3-14.6-10.16-25.21h12.5Z"/>
          <path class="cls-1" d="M1590.75,608.06c6.51,8.69,9.76,19.81,9.76,33.36,0,14.67-3.72,26.86-11.17,36.57-8.74,11.41-21.19,17.12-37.37,17.12-15.11,0-26.99-4.99-35.64-14.98-7.71-9.63-11.57-21.8-11.57-36.5,0-13.28,3.3-24.65,9.9-34.1,8.47-12.12,20.99-18.19,37.57-18.19s30.18,5.57,38.51,16.71ZM1579.02,670.61c5.24-8.4,7.86-18.06,7.86-28.98,0-11.54-3.02-20.84-9.06-27.88-6.04-7.04-14.3-10.56-24.77-10.56s-18.45,3.49-24.87,10.46c-6.42,6.98-9.63,17.26-9.63,30.86,0,10.88,2.75,20.05,8.26,27.51,5.5,7.47,14.43,11.2,26.78,11.2s20.2-4.2,25.44-12.6Z"/>
          <path class="cls-1" d="M1633.47,594.02h13.3v86.52h49.74v11.7h-63.05v-98.22Z"/>
          <path class="cls-1" d="M1741.18,594.02v60.71c0,7.13,1.34,13.06,4.01,17.78,3.97,7.13,10.65,10.7,20.06,10.7,11.28,0,18.94-3.85,23-11.57,2.18-4.19,3.28-9.83,3.28-16.92v-60.71h13.51v55.16c0,12.08-1.63,21.37-4.88,27.88-5.97,11.86-17.25,17.78-33.83,17.78s-27.84-5.93-33.76-17.78c-3.25-6.51-4.88-15.8-4.88-27.88v-55.16h13.51Z"/>
          <path class="cls-1" d="M1914.21,594.02v11.7h-33.1v86.51h-13.51v-86.51h-33.09v-11.7h79.7Z"/>
          <path class="cls-1" d="M1946.5,594.02h13.44v98.22h-13.44v-98.22Z"/>
          <path class="cls-1" d="M2079.55,608.06c6.51,8.69,9.76,19.81,9.76,33.36,0,14.67-3.72,26.86-11.17,36.57-8.74,11.41-21.19,17.12-37.37,17.12-15.11,0-26.99-4.99-35.64-14.98-7.71-9.63-11.57-21.8-11.57-36.5,0-13.28,3.3-24.65,9.9-34.1,8.47-12.12,20.99-18.19,37.57-18.19s30.18,5.57,38.51,16.71ZM2067.82,670.61c5.24-8.4,7.86-18.06,7.86-28.98,0-11.54-3.02-20.84-9.06-27.88-6.04-7.04-14.3-10.56-24.77-10.56s-18.45,3.49-24.87,10.46c-6.42,6.98-9.63,17.26-9.63,30.86,0,10.88,2.75,20.05,8.26,27.51,5.5,7.47,14.43,11.2,26.78,11.2s20.2-4.2,25.44-12.6Z"/>
          <path class="cls-1" d="M2122.28,594.02h15.71l49.61,79.56v-79.56h12.64v98.22h-14.91l-50.34-79.49v79.49h-12.7v-98.22Z"/>
          <path class="cls-1" d="M2246.97,660.55c.31,5.57,1.63,10.1,3.94,13.57,4.41,6.51,12.19,9.76,23.33,9.76,4.99,0,9.54-.71,13.64-2.14,7.93-2.76,11.9-7.71,11.9-14.84,0-5.35-1.67-9.16-5.01-11.43-3.39-2.23-8.69-4.17-15.91-5.82l-13.3-3.01c-8.69-1.96-14.84-4.12-18.45-6.49-6.24-4.1-9.36-10.23-9.36-18.39,0-8.83,3.05-16.07,9.16-21.73,6.11-5.66,14.75-8.49,25.94-8.49,10.3,0,19.04,2.49,26.24,7.45,7.2,4.97,10.8,12.92,10.8,23.84h-12.5c-.67-5.26-2.1-9.29-4.28-12.1-4.06-5.13-10.94-7.69-20.66-7.69-7.85,0-13.48,1.65-16.92,4.95-3.43,3.3-5.15,7.13-5.15,11.5,0,4.81,2.01,8.34,6.02,10.56,2.63,1.43,8.58,3.21,17.85,5.35l13.77,3.14c6.64,1.52,11.77,3.59,15.38,6.22,6.24,4.59,9.36,11.26,9.36,19.99,0,10.88-3.96,18.65-11.87,23.33-7.91,4.68-17.11,7.02-27.58,7.02-12.21,0-21.77-3.12-28.68-9.36-6.91-6.19-10.3-14.6-10.16-25.21h12.5Z"/>
        </g>
      </g>
      <path class="cls-2" d="M309.8,611.89c9.41-15.4,15.4-33.38,15.4-52.2,0-53.91-43.65-97.56-97.56-97.56s-97.56,43.65-97.56,97.56,43.65,97.56,97.56,97.56c16.26,0,30.81-3.42,43.65-10.27l47.07,47.07,29.1-43.65-37.65-38.51ZM227.64,605.9c-25.67,0-46.21-20.54-46.21-46.21s20.54-46.21,46.21-46.21,46.21,20.54,46.21,46.21-20.54,46.21-46.21,46.21ZM857.5,265.29c0-71.03-27.39-137.78-77.88-187.42C725.71,23.96,653.82-1.71,582.79.86c-54.77,1.71-108.69,20.54-154.04,55.63h0C382.54,19.68,325.2,0,265.29,0,194.27,0,127.51,27.39,77.88,77.88,27.39,127.51,0,194.26,0,265.29c0,59.91,19.68,117.24,56.48,163.46C19.69,474.96,0,532.3,0,592.21c0,71.03,27.39,137.78,77.88,187.42,50.49,50.49,116.39,77.88,187.42,77.88,59.91,0,117.24-19.68,163.46-56.48,46.21,35.94,100.98,54.77,155.76,56.48h7.7c67.61,0,136.07-25.67,187.42-77.88,50.49-50.49,77.88-116.39,77.88-187.42,0-59.91-19.68-117.24-56.48-163.46,36.8-47.07,56.48-103.55,56.48-163.46ZM51.35,265.29c0-57.34,22.25-111.25,62.47-151.47,40.22-40.22,94.14-62.47,151.48-62.47,45.36,0,89,14.55,124.95,40.22l-136.07,136.07-162.6,162.6c-25.67-36.8-40.22-79.59-40.22-124.95ZM365.42,668.37l-17.97-17.97-38.51-38.51c9.41-15.4,15.4-33.38,15.4-52.2,0-53.91-43.65-97.56-97.56-97.56s-97.56,43.65-97.56,97.56,43.65,97.56,97.56,97.56c16.26,0,30.81-3.42,43.65-10.27l47.07,47.07,71.03,71.03h0c-35.94,26.53-79.59,40.22-124.95,40.22-57.34,0-111.25-22.25-151.48-62.47-40.22-40.22-62.47-94.14-62.47-151.47s22.25-111.25,62.47-151.47l174.58-174.58,142.07-139.49,132.65,132.65c-8.56,14.55-13.69,31.66-13.69,49.64,0,53.91,43.65,97.56,97.56,97.56s97.56-43.65,97.56-97.56-43.65-97.56-97.56-97.56c-17.12,0-32.52,4.28-46.21,11.98l-131.79-131.79c31.67-23.11,68.46-35.94,105.26-39.37,6.84-.86,12.84-.86,19.68-.86,54.77,0,109.54,20.54,151.48,62.47,40.22,40.22,62.47,94.14,62.47,151.47s-22.25,111.25-62.47,151.47l-314.93,314.93-63.33-62.47ZM273.85,559.69c0,25.67-20.54,46.21-46.21,46.21s-46.21-20.54-46.21-46.21,20.54-46.21,46.21-46.21,46.21,20.54,46.21,46.21ZM599.05,308.94c0-25.67,20.54-46.21,46.21-46.21s46.21,20.54,46.21,46.21-20.54,46.21-46.21,46.21-46.21-21.39-46.21-46.21ZM806.16,591.35c0,57.34-22.25,111.25-62.47,151.47-40.22,40.22-94.14,62.47-151.48,62.47h-7.7c-42.79-1.71-83.87-15.4-118.1-40.22l298.67-298.67c26.53,35.94,41.08,79.59,41.08,124.95ZM309.8,611.89c9.41-15.4,15.4-33.38,15.4-52.2,0-53.91-43.65-97.56-97.56-97.56s-97.56,43.65-97.56,97.56,43.65,97.56,97.56,97.56c16.26,0,30.81-3.42,43.65-10.27l47.07,47.07,29.1-43.65-37.65-38.51ZM227.64,605.9c-25.67,0-46.21-20.54-46.21-46.21s20.54-46.21,46.21-46.21,46.21,20.54,46.21,46.21-20.54,46.21-46.21,46.21Z"/>
    </g>
  </g>
</svg>